<?xml version="1.0" encoding="utf-8"?>
<!-- Generator: Adobe Illustrator 15.0.0, SVG Export Plug-In . SVG Version: 6.00 Build 0)  -->
<!DOCTYPE svg PUBLIC "-//W3C//DTD SVG 1.1//EN" "http://www.w3.org/Graphics/SVG/1.1/DTD/svg11.dtd">
<svg version="1.1" id="Layer_1" xmlns="http://www.w3.org/2000/svg" xmlns:xlink="http://www.w3.org/1999/xlink" x="0px" y="0px"
	 width="64px" height="64px" viewBox="-20 -20 64 64" enable-background="new -20 -20 64 64" xml:space="preserve">
<circle cx="12" cy="14.4" r="7.68"/>
<path d="M4.8-9.6L0.408-4.8H-7.2C-9.84-4.8-12-2.64-12,0v28.8c0,2.64,2.16,4.8,4.8,4.8h38.4c2.639,0,4.8-2.16,4.8-4.8V0
	c0-2.64-2.161-4.8-4.8-4.8h-7.608L19.2-9.6H4.8z M12,26.4c-6.624,0-12-5.377-12-12c0-6.624,5.376-12,12-12c6.623,0,12,5.376,12,12
	C24,21.023,18.623,26.4,12,26.4z"/>
</svg>
