<?xml version="1.0" encoding="utf-8"?>
<!-- Generator: Adobe Illustrator 15.0.0, SVG Export Plug-In . SVG Version: 6.00 Build 0)  -->
<!DOCTYPE svg PUBLIC "-//W3C//DTD SVG 1.1//EN" "http://www.w3.org/Graphics/SVG/1.1/DTD/svg11.dtd">
<svg version="1.1" id="Layer_1" xmlns="http://www.w3.org/2000/svg" xmlns:xlink="http://www.w3.org/1999/xlink" x="0px" y="0px"
	 width="64px" height="64px" viewBox="0 0 64 64" enable-background="new 0 0 64 64" xml:space="preserve">
<path d="M32,25.032c3.852,0,6.968,3.116,6.968,6.968c0,3.852-3.116,6.968-6.968,6.968c-3.852,0-6.968-3.116-6.968-6.968
	C25.032,28.148,28.148,25.032,32,25.032z M25.032,14.968c0,3.852,3.116,6.968,6.968,6.968c3.852,0,6.968-3.116,6.968-6.968
	C38.968,11.116,35.852,8,32,8C28.148,8,25.032,11.116,25.032,14.968z M25.032,49.032C25.032,52.884,28.148,56,32,56
	c3.852,0,6.968-3.116,6.968-6.968c0-3.853-3.116-6.968-6.968-6.968C28.148,42.064,25.032,45.182,25.032,49.032z"/>
</svg>
