<?xml version="1.0" encoding="utf-8"?>
<!-- Generator: Adobe Illustrator 15.0.0, SVG Export Plug-In . SVG Version: 6.00 Build 0)  -->
<!DOCTYPE svg PUBLIC "-//W3C//DTD SVG 1.1//EN" "http://www.w3.org/Graphics/SVG/1.1/DTD/svg11.dtd">
<svg version="1.1" id="Layer_1" xmlns="http://www.w3.org/2000/svg" xmlns:xlink="http://www.w3.org/1999/xlink" x="0px" y="0px"
	 width="64px" height="64px" viewBox="0 0 64 64" enable-background="new 0 0 64 64" xml:space="preserve">
<path d="M9.714,18.714h44.571C55.232,18.714,56,17.947,56,17v-4.286C56,11.768,55.232,11,54.286,11H9.714
	C8.768,11,8,11.768,8,12.714V17C8,17.947,8.768,18.714,9.714,18.714z M15.286,35.857h33.429c0.71,0,1.286-0.768,1.286-1.715v-4.286
	c0-0.947-0.576-1.714-1.286-1.714H15.286c-0.71,0-1.286,0.767-1.286,1.714v4.286C14,35.09,14.576,35.857,15.286,35.857z M20.857,53
	h22.286C43.616,53,44,52.232,44,51.286V47c0-0.947-0.384-1.714-0.857-1.714H20.857C20.384,45.286,20,46.053,20,47v4.286
	C20,52.232,20.384,53,20.857,53z"/>
</svg>
