<?xml version="1.0" encoding="utf-8"?>
<!-- Generator: Adobe Illustrator 15.0.0, SVG Export Plug-In . SVG Version: 6.00 Build 0)  -->
<!DOCTYPE svg PUBLIC "-//W3C//DTD SVG 1.1//EN" "http://www.w3.org/Graphics/SVG/1.1/DTD/svg11.dtd">
<svg version="1.1" id="Layer_1" xmlns="http://www.w3.org/2000/svg" xmlns:xlink="http://www.w3.org/1999/xlink" x="0px" y="0px"
	 width="64px" height="64px" viewBox="0 0 64 64" enable-background="new 0 0 64 64" xml:space="preserve">
<g>
	<path d="M44,13.143h6.214c0.354,0,0.644,0.289,0.644,0.643V20H56v-6.857C56,10.304,53.695,8,50.857,8H44V13.143z"/>
	<path d="M13.143,20v-6.214c0-0.354,0.289-0.643,0.643-0.643H20V8h-6.857C10.304,8,8,10.304,8,13.143V20H13.143z"/>
	<path d="M50.857,44v6.214c0,0.354-0.289,0.644-0.644,0.644H44V56h6.857C53.695,56,56,53.695,56,50.857V44H50.857z"/>
	<path d="M20,50.857h-6.214c-0.354,0-0.643-0.289-0.643-0.644V44H8v6.857C8,53.695,10.304,56,13.143,56H20V50.857z"/>
</g>
</svg>
