<?xml version="1.0" encoding="utf-8"?>
<!-- Generator: Adobe Illustrator 15.0.0, SVG Export Plug-In . SVG Version: 6.00 Build 0)  -->
<!DOCTYPE svg PUBLIC "-//W3C//DTD SVG 1.1//EN" "http://www.w3.org/Graphics/SVG/1.1/DTD/svg11.dtd">
<svg version="1.1" id="Layer_1" focusable="false" xmlns="http://www.w3.org/2000/svg" xmlns:xlink="http://www.w3.org/1999/xlink"
	 x="0px" y="0px" width="64px" height="64px" viewBox="0 0 64 64" enable-background="new 0 0 64 64" xml:space="preserve">
<path d="M55.12,29.874L34.126,8.88c-1.174-1.174-3.078-1.174-4.252,0L8.88,29.874c-1.174,1.175-1.174,3.077,0,4.252L29.874,55.12
	c1.174,1.175,3.078,1.175,4.252,0L55.12,34.126C56.293,32.951,56.293,31.049,55.12,29.874z M45.652,31.051l-7.896,7.288
	c-0.479,0.443-1.26,0.103-1.26-0.551V32.75h-8.999v6c0,0.415-0.335,0.75-0.75,0.75h-3c-0.414,0-0.75-0.335-0.75-0.75v-7.5
	c0-1.657,1.344-3,3-3h10.499v-5.037c0-0.653,0.778-0.995,1.26-0.551l7.896,7.287C45.975,30.246,45.975,30.754,45.652,31.051z"/>
</svg>
