<?xml version="1.0" encoding="utf-8"?>
<!-- Generator: Adobe Illustrator 15.0.0, SVG Export Plug-In . SVG Version: 6.00 Build 0)  -->
<!DOCTYPE svg PUBLIC "-//W3C//DTD SVG 1.1//EN" "http://www.w3.org/Graphics/SVG/1.1/DTD/svg11.dtd">
<svg version="1.1" id="Layer_1" xmlns="http://www.w3.org/2000/svg" xmlns:xlink="http://www.w3.org/1999/xlink" x="0px" y="0px"
	 width="64px" height="64px" viewBox="0 0 64 64" enable-background="new 0 0 64 64" xml:space="preserve">
<path d="M32,8C18.746,8,8,18.75,8,32c0,13.258,10.746,24,24,24s24-10.742,24-24C56,18.75,45.254,8,32,8z M32,18.645
	c2.245,0,4.064,1.82,4.064,4.064c0,2.245-1.819,4.065-4.064,4.065s-4.064-1.82-4.064-4.065C27.936,20.465,29.755,18.645,32,18.645z
	 M37.419,43.226c0,0.643-0.52,1.161-1.161,1.161h-8.516c-0.642,0-1.161-0.52-1.161-1.161v-2.321c0-0.643,0.52-1.161,1.161-1.161
	h1.162V33.55h-1.162c-0.642,0-1.161-0.521-1.161-1.162v-2.322c0-0.642,0.52-1.161,1.161-1.161h6.193c0.643,0,1.161,0.52,1.161,1.161
	v9.678h1.161c0.643,0,1.161,0.52,1.161,1.161V43.226z"/>
</svg>
