<?xml version="1.0" encoding="utf-8"?>
<!-- Generator: Adobe Illustrator 15.0.0, SVG Export Plug-In . SVG Version: 6.00 Build 0)  -->
<!DOCTYPE svg PUBLIC "-//W3C//DTD SVG 1.1//EN" "http://www.w3.org/Graphics/SVG/1.1/DTD/svg11.dtd">
<svg version="1.1" id="info-24px-2" xmlns="http://www.w3.org/2000/svg" xmlns:xlink="http://www.w3.org/1999/xlink" x="0px"
	 y="0px" width="64px" height="64px" viewBox="0 0 64 64" enable-background="new 0 0 64 64" xml:space="preserve">
<g id="contact_support-24px" transform="translate(2.195 2)">
	<path id="Path_423" d="M28.726,54v-7.65C17.923,45.854,9.397,37,9.309,26.186C9.406,14.958,18.576,5.926,29.805,6
		c11.228-0.075,20.398,8.958,20.496,20.185c0,10.517-7.419,21.101-18.49,26.353L28.726,54z M29.805,10.25
		c-8.868-0.063-16.109,7.07-16.181,15.936c0.071,8.868,7.312,15.999,16.181,15.937h3.237v4.88
		c7.852-4.88,12.943-12.919,12.943-20.824C45.911,17.314,38.669,10.185,29.805,10.25z M27.647,34.695h4.316v4.249h-4.316V34.695z
		 M31.963,31.506h-4.316c0-6.904,6.474-6.374,6.474-10.623c-0.051-2.383-2.024-4.274-4.407-4.223
		c-2.311,0.05-4.173,1.912-4.222,4.223h-4.316c0.102-4.766,4.047-8.548,8.812-8.447c4.625,0.099,8.348,3.824,8.447,8.447
		c0,5.303-6.474,5.835-6.474,10.615L31.963,31.506z"/>
</g>
</svg>
