<?xml version="1.0" encoding="utf-8"?>
<!-- Generator: Adobe Illustrator 15.0.0, SVG Export Plug-In . SVG Version: 6.00 Build 0)  -->
<!DOCTYPE svg PUBLIC "-//W3C//DTD SVG 1.1//EN" "http://www.w3.org/Graphics/SVG/1.1/DTD/svg11.dtd">
<svg version="1.1" id="Layer_1" xmlns="http://www.w3.org/2000/svg" xmlns:xlink="http://www.w3.org/1999/xlink" x="0px" y="0px"
	 width="64px" height="64px" viewBox="0 0 64 64" enable-background="new 0 0 64 64" xml:space="preserve">
<path d="M55.373,25.454l-12,11.333C42.108,37.981,40,37.096,40,35.333v-5.997c-12.048,0.081-17.131,2.926-13.731,14.279
	c0.374,1.248-1.069,2.214-2.084,1.443C20.938,42.592,18,37.874,18,33.112c0-11.995,9.8-14.375,22-14.442v-6.001
	c0-1.765,2.109-2.646,3.373-1.454l12,11.333C56.208,23.334,56.209,24.665,55.373,25.454z M40,42.261V48H13.333V21.333h4.243
	c0.271,0,0.532-0.111,0.721-0.308c1.246-1.298,2.688-2.324,4.251-3.141c0.928-0.482,0.584-1.886-0.462-1.886H12
	c-2.209,0-4,1.791-4,4v29.333c0,2.209,1.791,4,4,4h29.333c2.209,0,4-1.791,4-4v-7.4c0-0.689-0.683-1.172-1.334-0.94
	c-0.913,0.321-1.891,0.419-2.85,0.281C40.544,41.186,40,41.648,40,42.261L40,42.261z"/>
</svg>
