<?xml version="1.0" encoding="utf-8"?>
<!-- Generator: Adobe Illustrator 15.0.0, SVG Export Plug-In . SVG Version: 6.00 Build 0)  -->
<!DOCTYPE svg PUBLIC "-//W3C//DTD SVG 1.1//EN" "http://www.w3.org/Graphics/SVG/1.1/DTD/svg11.dtd">
<svg version="1.1" id="Layer_1" xmlns="http://www.w3.org/2000/svg" xmlns:xlink="http://www.w3.org/1999/xlink" x="0px" y="0px"
	 width="64px" height="64px" viewBox="0 -20 64 64" enable-background="new 0 -20 64 64" xml:space="preserve">
<path d="M17.653,8.773c3.842,7.547,10.026,13.706,17.573,17.573l5.867-5.867c0.719-0.719,1.786-0.959,2.719-0.641
	c2.987,0.989,6.214,1.521,9.521,1.521c1.467,0,2.667,1.2,2.667,2.667v9.307C56,34.8,54.8,36,53.333,36C28.292,36,8,15.708,8-9.333
	C8-10.799,9.201-12,10.667-12H20c1.466,0,2.667,1.201,2.667,2.667c0,3.333,0.533,6.534,1.521,9.52
	c0.292,0.934,0.078,1.974-0.667,2.72L17.653,8.773z"/>
</svg>
