<?xml version="1.0" encoding="utf-8"?>
<!-- Generator: Adobe Illustrator 15.0.0, SVG Export Plug-In . SVG Version: 6.00 Build 0)  -->
<!DOCTYPE svg PUBLIC "-//W3C//DTD SVG 1.1//EN" "http://www.w3.org/Graphics/SVG/1.1/DTD/svg11.dtd">
<svg version="1.1" id="Layer_1" xmlns="http://www.w3.org/2000/svg" xmlns:xlink="http://www.w3.org/1999/xlink" x="0px" y="0px"
	 width="64px" height="64px" viewBox="0 0 64 64" enable-background="new 0 0 64 64" xml:space="preserve">
<path d="M49.311,9.194l0.373,7.754c-4.262-5.006-10.608-8.183-17.699-8.183c-11.354,0-20.805,8.144-22.833,18.909
	c-0.13,0.69,0.404,1.328,1.106,1.328h4.599c0.522,0,0.972-0.36,1.094-0.868c1.737-7.245,8.251-12.624,16.034-12.624
	c5.705,0,10.729,2.891,13.688,7.289l-9.512-0.456c-0.642-0.031-1.179,0.48-1.179,1.123v4.442c0,0.621,0.504,1.125,1.125,1.125h18.77
	c0.621,0,1.124-0.503,1.124-1.125V9.14c0-0.621-0.503-1.124-1.124-1.124h-4.441C49.792,8.016,49.279,8.552,49.311,9.194z
	 M31.984,48.489c-5.705,0-10.729-2.892-13.689-7.29l9.544,0.457c0.642,0.031,1.178-0.481,1.178-1.123v-4.442
	c0-0.62-0.503-1.125-1.125-1.125H9.124C8.503,34.967,8,35.471,8,36.091v18.769c0,0.621,0.503,1.125,1.124,1.125h4.44
	c0.643,0,1.155-0.539,1.123-1.18L14.3,47.068c4.261,4.996,10.602,8.166,17.685,8.166c11.354,0,20.805-8.144,22.833-18.908
	c0.13-0.69-0.404-1.328-1.106-1.328h-4.599c-0.521,0-0.973,0.359-1.094,0.868C46.281,43.111,39.768,48.489,31.984,48.489z"/>
</svg>
