<?xml version="1.0" encoding="utf-8"?>
<!-- Generator: Adobe Illustrator 15.0.0, SVG Export Plug-In . SVG Version: 6.00 Build 0)  -->
<!DOCTYPE svg PUBLIC "-//W3C//DTD SVG 1.1//EN" "http://www.w3.org/Graphics/SVG/1.1/DTD/svg11.dtd">
<svg version="1.1" id="Layer_1" xmlns="http://www.w3.org/2000/svg" xmlns:xlink="http://www.w3.org/1999/xlink" x="0px" y="0px"
	 width="64px" height="64px" viewBox="0 0 64 64" enable-background="new 0 0 64 64" xml:space="preserve">
<path d="M54.494,18.493l-8.988-8.987C44.542,8.542,43.234,8,41.87,8H13.143C10.302,8,8,10.302,8,13.143v37.715
	C8,53.697,10.302,56,13.143,56h37.715C53.697,56,56,53.697,56,50.857V22.129C56,20.765,55.458,19.457,54.494,18.493z M32,49.142
	c-3.787,0-6.857-3.068-6.857-6.855s3.07-6.857,6.857-6.857s6.857,3.07,6.857,6.857S35.787,49.142,32,49.142z M42.286,16.515v10.771
	c0,0.71-0.576,1.286-1.286,1.286H16.143c-0.71,0-1.285-0.576-1.285-1.286V16.142c0-0.71,0.575-1.285,1.285-1.285h24.484
	c0.341,0,0.668,0.136,0.909,0.377l0.373,0.373C42.15,15.847,42.286,16.174,42.286,16.515L42.286,16.515z"/>
</svg>
