<?xml version="1.0" encoding="utf-8"?>
<!-- Generator: Adobe Illustrator 15.0.0, SVG Export Plug-In . SVG Version: 6.00 Build 0)  -->
<!DOCTYPE svg PUBLIC "-//W3C//DTD SVG 1.1//EN" "http://www.w3.org/Graphics/SVG/1.1/DTD/svg11.dtd">
<svg version="1.1" id="Layer_1" xmlns="http://www.w3.org/2000/svg" xmlns:xlink="http://www.w3.org/1999/xlink" x="0px" y="0px"
	 width="64px" height="64px" viewBox="0 0 64 64" enable-background="new 0 0 64 64" xml:space="preserve">
<path d="M55.343,49.5l-9.346-9.346c-0.422-0.422-0.994-0.656-1.595-0.656h-1.527C45.463,36.188,47,32.026,47,27.499
	C47,16.728,38.273,8,27.502,8C16.731,8,8.004,16.728,8.004,27.499c0,10.771,8.727,19.498,19.498,19.498
	c4.528,0,8.689-1.538,11.999-4.125V44.4c0,0.6,0.233,1.172,0.656,1.594l9.346,9.346c0.881,0.881,2.306,0.881,3.179,0l2.652-2.652
	C56.215,51.805,56.215,50.38,55.343,49.5z M27.502,39.497c-6.627,0-11.999-5.362-11.999-11.999c0-6.627,5.362-11.999,11.999-11.999
	c6.627,0,11.999,5.362,11.999,11.999C39.501,34.126,34.139,39.497,27.502,39.497z"/>
</svg>
