<?xml version="1.0" encoding="utf-8"?>
<!-- Generator: Adobe Illustrator 15.0.0, SVG Export Plug-In . SVG Version: 6.00 Build 0)  -->
<!DOCTYPE svg PUBLIC "-//W3C//DTD SVG 1.1//EN" "http://www.w3.org/Graphics/SVG/1.1/DTD/svg11.dtd">
<svg version="1.1" id="Layer_1" xmlns="http://www.w3.org/2000/svg" xmlns:xlink="http://www.w3.org/1999/xlink" x="0px" y="0px"
	 width="64px" height="64px" viewBox="0 0 64 64" enable-background="new 0 0 64 64" xml:space="preserve">
<path d="M16,62V20h2c1.1,0,2-0.9,2-2v-4c0-1.1-0.9-2-2-2h-2V2c0-1.1-0.9-2-2-2h-4C8.9,0,8,0.9,8,2v10H6c-1.1,0-2,0.9-2,2v4
	c0,1.1,0.9,2,2,2h2v42c0,1.1,0.9,2,2,2h4C15.1,64,16,63.1,16,62z M36,62V52h2c1.1,0,2-0.9,2-2v-4c0-1.1-0.9-2-2-2h-2V2
	c0-1.1-0.9-2-2-2h-4c-1.1,0-2,0.9-2,2v42h-2c-1.1,0-2,0.9-2,2v4c0,1.1,0.9,2,2,2h2v10c0,1.1,0.9,2,2,2h4C35.1,64,36,63.1,36,62z
	 M56,62V36h2c1.1,0,2-0.9,2-2v-4c0-1.1-0.9-2-2-2h-2V2c0-1.1-0.9-2-2-2h-4c-1.1,0-2,0.9-2,2v26h-2c-1.1,0-2,0.9-2,2v4
	c0,1.1,0.9,2,2,2h2v26c0,1.1,0.9,2,2,2h4C55.1,64,56,63.1,56,62z"/>
</svg>
