<?xml version="1.0" encoding="utf-8"?>
<!-- Generator: Adobe Illustrator 15.0.0, SVG Export Plug-In . SVG Version: 6.00 Build 0)  -->
<!DOCTYPE svg PUBLIC "-//W3C//DTD SVG 1.1//EN" "http://www.w3.org/Graphics/SVG/1.1/DTD/svg11.dtd">
<svg version="1.1" id="Layer_1" xmlns="http://www.w3.org/2000/svg" xmlns:xlink="http://www.w3.org/1999/xlink" x="0px" y="0px"
	 width="64px" height="64px" viewBox="0 0 64 64" enable-background="new 0 0 64 64" xml:space="preserve">
<path d="M35.75,43.996h-7.5c-1.247,0-2.25-1.003-2.25-2.25v-15.75h-8.222c-1.669,0-2.503-2.016-1.322-3.197L30.716,8.53
	c0.703-0.703,1.856-0.703,2.56,0l14.27,14.269c1.182,1.182,0.348,3.197-1.322,3.197H38v15.75C38,42.993,36.997,43.996,35.75,43.996z
	 M56,43.246v10.5c0,1.247-1.003,2.25-2.25,2.25h-43.5c-1.247,0-2.25-1.003-2.25-2.25v-10.5c0-1.247,1.003-2.25,2.25-2.25H23v0.75
	c0,2.896,2.353,5.25,5.25,5.25h7.5c2.896,0,5.25-2.354,5.25-5.25v-0.75h12.75C54.997,40.996,56,41.999,56,43.246z M44.375,51.496
	c0-1.031-0.844-1.875-1.875-1.875s-1.875,0.844-1.875,1.875s0.844,1.875,1.875,1.875S44.375,52.527,44.375,51.496z M50.375,51.496
	c0-1.031-0.844-1.875-1.875-1.875s-1.875,0.844-1.875,1.875s0.844,1.875,1.875,1.875S50.375,52.527,50.375,51.496z"/>
</svg>
