<?xml version="1.0" encoding="utf-8"?>
<!-- Generator: Adobe Illustrator 15.0.0, SVG Export Plug-In . SVG Version: 6.00 Build 0)  -->
<!DOCTYPE svg PUBLIC "-//W3C//DTD SVG 1.1//EN" "http://www.w3.org/Graphics/SVG/1.1/DTD/svg11.dtd">
<svg version="1.1" id="Layer_1" xmlns="http://www.w3.org/2000/svg" xmlns:xlink="http://www.w3.org/1999/xlink" x="0px" y="0px"
	 width="64px" height="64px" viewBox="0 0 64 64" enable-background="new 0 0 64 64" xml:space="preserve">
<path d="M32,8C18.742,8,8,18.742,8,32s10.742,24,24,24s24-10.742,24-24S45.258,8,32,8z M32,17.291c4.703,0,8.517,3.812,8.517,8.516
	c0,4.703-3.812,8.517-8.517,8.517s-8.516-3.812-8.516-8.517S27.297,17.291,32,17.291z M32,50.581
	c-5.681,0-10.771-2.574-14.177-6.601c1.818-3.427,5.38-5.787,9.532-5.787c0.231,0,0.464,0.039,0.687,0.105
	c1.258,0.406,2.574,0.668,3.958,0.668s2.71-0.262,3.958-0.668c0.223-0.066,0.455-0.105,0.688-0.105c4.15,0,7.713,2.36,9.531,5.787
	C42.771,48.007,37.681,50.581,32,50.581z"/>
</svg>
