<?xml version="1.0" encoding="utf-8"?>
<!-- Generator: Adobe Illustrator 15.0.0, SVG Export Plug-In . SVG Version: 6.00 Build 0)  -->
<!DOCTYPE svg PUBLIC "-//W3C//DTD SVG 1.1//EN" "http://www.w3.org/Graphics/SVG/1.1/DTD/svg11.dtd">
<svg version="1.1" id="Layer_1" xmlns="http://www.w3.org/2000/svg" xmlns:xlink="http://www.w3.org/1999/xlink" x="0px" y="0px"
	 width="64px" height="64px" viewBox="0 0 64 64" enable-background="new 0 0 64 64" xml:space="preserve">
<path d="M28.25,8h7.5C36.997,8,38,9.003,38,10.25V26h8.223c1.668,0,2.502,2.016,1.321,3.197l-14.26,14.269
	c-0.703,0.703-1.856,0.703-2.559,0L16.447,29.197C15.266,28.016,16.1,26,17.769,26H26V10.25C26,9.003,27.003,8,28.25,8z M56,43.25
	v10.5c0,1.247-1.003,2.25-2.25,2.25h-43.5C9.003,56,8,54.997,8,53.75v-10.5C8,42.003,9.003,41,10.25,41h13.753l4.594,4.594
	c1.885,1.885,4.922,1.885,6.807,0L39.997,41H53.75C54.997,41,56,42.003,56,43.25z M44.375,51.5c0-1.031-0.844-1.875-1.875-1.875
	s-1.875,0.844-1.875,1.875s0.844,1.875,1.875,1.875S44.375,52.531,44.375,51.5z M50.375,51.5c0-1.031-0.844-1.875-1.875-1.875
	s-1.875,0.844-1.875,1.875s0.844,1.875,1.875,1.875S50.375,52.531,50.375,51.5z"/>
</svg>
