<?xml version="1.0" encoding="utf-8"?>
<!-- Generator: Adobe Illustrator 15.0.0, SVG Export Plug-In . SVG Version: 6.00 Build 0)  -->
<!DOCTYPE svg PUBLIC "-//W3C//DTD SVG 1.1//EN" "http://www.w3.org/Graphics/SVG/1.1/DTD/svg11.dtd">
<svg version="1.1" id="Layer_1" xmlns="http://www.w3.org/2000/svg" xmlns:xlink="http://www.w3.org/1999/xlink" x="0px" y="0px"
	 width="64px" height="64px" viewBox="0 0 64 64" enable-background="new 0 0 64 64" xml:space="preserve">
<path d="M24.875,35h-3.75C20.506,35,20,34.494,20,33.875v-3.75C20,29.506,20.506,29,21.125,29h3.75C25.494,29,26,29.506,26,30.125
	v3.75C26,34.494,25.494,35,24.875,35z M35,33.875v-3.75C35,29.506,34.494,29,33.875,29h-3.75C29.506,29,29,29.506,29,30.125v3.75
	C29,34.494,29.506,35,30.125,35h3.75C34.494,35,35,34.494,35,33.875z M44,33.875v-3.75C44,29.506,43.494,29,42.875,29h-3.75
	C38.506,29,38,29.506,38,30.125v3.75C38,34.494,38.506,35,39.125,35h3.75C43.494,35,44,34.494,44,33.875z M35,42.875v-3.75
	C35,38.506,34.494,38,33.875,38h-3.75C29.506,38,29,38.506,29,39.125v3.75C29,43.494,29.506,44,30.125,44h3.75
	C34.494,44,35,43.494,35,42.875z M26,42.875v-3.75C26,38.506,25.494,38,24.875,38h-3.75C20.506,38,20,38.506,20,39.125v3.75
	C20,43.494,20.506,44,21.125,44h3.75C25.494,44,26,43.494,26,42.875z M44,42.875v-3.75C44,38.506,43.494,38,42.875,38h-3.75
	C38.506,38,38,38.506,38,39.125v3.75C38,43.494,38.506,44,39.125,44h3.75C43.494,44,44,43.494,44,42.875z M53,18.5v33
	c0,2.484-2.016,4.5-4.5,4.5h-33c-2.484,0-4.5-2.016-4.5-4.5v-33c0-2.484,2.016-4.5,4.5-4.5H20V9.125C20,8.506,20.506,8,21.125,8
	h3.75C25.494,8,26,8.506,26,9.125V14h12V9.125C38,8.506,38.506,8,39.125,8h3.75C43.494,8,44,8.506,44,9.125V14h4.5
	C50.984,14,53,16.016,53,18.5z M48.5,50.938V23h-33v27.938c0,0.311,0.253,0.562,0.562,0.562h31.875
	C48.247,51.5,48.5,51.247,48.5,50.938z"/>
</svg>
