<?xml version="1.0" encoding="utf-8"?>
<!-- Generator: Adobe Illustrator 15.0.0, SVG Export Plug-In . SVG Version: 6.00 Build 0)  -->
<!DOCTYPE svg PUBLIC "-//W3C//DTD SVG 1.1//EN" "http://www.w3.org/Graphics/SVG/1.1/DTD/svg11.dtd">
<svg version="1.1" id="Layer_1" xmlns="http://www.w3.org/2000/svg" xmlns:xlink="http://www.w3.org/1999/xlink" x="0px" y="0px"
	 width="64px" height="64px" viewBox="0 0 64 64" enable-background="new 0 0 64 64" xml:space="preserve">
<path d="M32,56c-9.228,0-16.695-7.467-16.695-16.695c0-10.426,9.486-14.444,13.923-29.234c0.854-2.823,4.792-2.698,5.543,0
	c4.457,14.858,13.924,18.756,13.924,29.234C48.695,48.533,41.229,56,32,56z M28.014,39.891c-0.142-0.519-0.886-0.519-1.027,0
	c-0.865,2.76-2.617,3.529-2.617,5.479c0,1.735,1.394,3.13,3.13,3.13c1.737,0,3.13-1.395,3.13-3.13
	C30.63,43.416,28.88,42.654,28.014,39.891z"/>
</svg>
