<?xml version="1.0" encoding="utf-8"?>
<!-- Generator: Adobe Illustrator 15.0.0, SVG Export Plug-In . SVG Version: 6.00 Build 0)  -->
<!DOCTYPE svg PUBLIC "-//W3C//DTD SVG 1.1//EN" "http://www.w3.org/Graphics/SVG/1.1/DTD/svg11.dtd">
<svg version="1.1" id="Layer_1" xmlns="http://www.w3.org/2000/svg" xmlns:xlink="http://www.w3.org/1999/xlink" x="0px" y="0px"
	 width="64px" height="64px" viewBox="0 0 64 64" enable-background="new 0 0 64 64" xml:space="preserve">
<path d="M11,15.875V13.25c0-1.247,1.003-2.25,2.25-2.25h10.5l0.881-1.753C25.006,8.478,25.784,8,26.637,8h10.717
	c0.853,0,1.631,0.478,2.016,1.247L40.25,11h10.5c1.247,0,2.25,1.003,2.25,2.25v2.625C53,16.494,52.494,17,51.875,17h-39.75
	C11.506,17,11,16.494,11,15.875z M49.925,21.19l-1.912,30.591C47.863,54.153,45.894,56,43.521,56H20.479
	c-2.371,0-4.34-1.847-4.49-4.219L14.076,21.19C14.038,20.544,14.554,20,15.201,20H48.81C49.447,20,49.963,20.544,49.925,21.19
	L49.925,21.19z"/>
</svg>
