<?xml version="1.0" encoding="utf-8"?>
<!-- Generator: Adobe Illustrator 15.0.0, SVG Export Plug-In . SVG Version: 6.00 Build 0)  -->
<!DOCTYPE svg PUBLIC "-//W3C//DTD SVG 1.1//EN" "http://www.w3.org/Graphics/SVG/1.1/DTD/svg11.dtd">
<svg version="1.1" id="Layer_1" xmlns="http://www.w3.org/2000/svg" xmlns:xlink="http://www.w3.org/1999/xlink" x="0px" y="0px"
	 width="64px" height="64px" viewBox="0 0 64 64" enable-background="new 0 0 64 64" xml:space="preserve">
<path d="M54.715,25.143H41.43c-1.426,0-2.57-1.146-2.57-2.571V9.286C38.859,8.579,39.436,8,40.143,8h4.287
	c0.707,0,1.285,0.579,1.285,1.286v9h9c0.707,0,1.285,0.579,1.285,1.286v4.286C56,24.565,55.422,25.143,54.715,25.143z
	 M25.143,22.572V9.286C25.143,8.579,24.565,8,23.858,8h-4.286c-0.707,0-1.286,0.579-1.286,1.286v9h-9
	C8.579,18.286,8,18.865,8,19.572v4.286c0,0.708,0.579,1.285,1.286,1.285h13.286C23.998,25.143,25.143,23.998,25.143,22.572z
	 M25.143,54.715V41.43c0-1.426-1.146-2.57-2.571-2.57H9.286C8.579,38.859,8,39.436,8,40.143v4.287c0,0.707,0.579,1.285,1.286,1.285
	h9v9c0,0.707,0.579,1.285,1.286,1.285h4.286C24.565,56,25.143,55.422,25.143,54.715z M45.715,54.715v-9h9
	c0.707,0,1.285-0.578,1.285-1.285v-4.287c0-0.707-0.578-1.283-1.285-1.283H41.43c-1.426,0-2.57,1.145-2.57,2.57v13.285
	c0,0.707,0.576,1.285,1.283,1.285h4.287C45.137,56,45.715,55.422,45.715,54.715z"/>
</svg>
