<?xml version="1.0" encoding="utf-8"?>
<!-- Generator: Adobe Illustrator 15.0.0, SVG Export Plug-In . SVG Version: 6.00 Build 0)  -->
<!DOCTYPE svg PUBLIC "-//W3C//DTD SVG 1.1//EN" "http://www.w3.org/Graphics/SVG/1.1/DTD/svg11.dtd">
<svg version="1.1" id="Layer_1" xmlns="http://www.w3.org/2000/svg" xmlns:xlink="http://www.w3.org/1999/xlink" x="0px" y="0px"
	 width="64px" height="64px" viewBox="0 0 64 64" enable-background="new 0 0 64 64" xml:space="preserve">
<path d="M48.383,55.119l6.736-6.736c1.174-1.175,1.174-3.062,0-4.236L42.973,32l12.146-12.147c1.174-1.174,1.174-3.062,0-4.236
	l-6.736-6.736c-1.175-1.174-3.062-1.174-4.236,0L32,21.028L19.853,8.881c-1.174-1.174-3.062-1.174-4.236,0l-6.736,6.736
	c-1.174,1.175-1.174,3.062,0,4.236L21.028,32L8.881,44.146c-1.174,1.176-1.174,3.062,0,4.236l6.736,6.736
	c1.175,1.174,3.062,1.174,4.236,0L32,42.973l12.146,12.146C45.309,56.281,47.208,56.281,48.383,55.119z"/>
</svg>
