<?xml version="1.0" encoding="utf-8"?>
<!-- Generator: Adobe Illustrator 15.0.0, SVG Export Plug-In . SVG Version: 6.00 Build 0)  -->
<!DOCTYPE svg PUBLIC "-//W3C//DTD SVG 1.1//EN" "http://www.w3.org/Graphics/SVG/1.1/DTD/svg11.dtd">
<svg version="1.1" id="Layer_1" xmlns="http://www.w3.org/2000/svg" xmlns:xlink="http://www.w3.org/1999/xlink" x="0px" y="0px"
	 width="64px" height="64px" viewBox="0 0 64 64" enable-background="new 0 0 64 64" xml:space="preserve">
<path d="M41.02,47.916l-7.424,7.425c-0.88,0.88-2.305,0.88-3.184,0l-7.424-7.425c-1.417-1.417-0.414-3.841,1.591-3.841h4.796v-9.45
	h-9.45v4.796c0,2.005-2.424,3.009-3.841,1.593L8.66,33.588c-0.879-0.879-0.879-2.304,0-3.182l7.424-7.425
	c1.417-1.417,3.841-0.414,3.841,1.591v4.803h9.45v-9.451h-4.803c-2.004,0-3.008-2.423-1.591-3.841l7.424-7.425
	c0.879-0.878,2.303-0.878,3.182,0l7.425,7.425c1.418,1.417,0.413,3.841-1.591,3.841h-4.797v9.451h9.45v-4.796
	c0-2.005,2.424-3.009,3.841-1.591l7.425,7.425c0.879,0.878,0.879,2.304,0,3.183l-7.425,7.424c-1.417,1.418-3.841,0.414-3.841-1.59
	v-4.804h-9.45v9.45h4.803C41.434,44.075,42.438,46.499,41.02,47.916L41.02,47.916z"/>
</svg>
