<?xml version="1.0" encoding="utf-8"?>
<!-- Generator: Adobe Illustrator 15.0.0, SVG Export Plug-In . SVG Version: 6.00 Build 0)  -->
<!DOCTYPE svg PUBLIC "-//W3C//DTD SVG 1.1//EN" "http://www.w3.org/Graphics/SVG/1.1/DTD/svg11.dtd">
<svg version="1.1" id="Layer_1" xmlns="http://www.w3.org/2000/svg" xmlns:xlink="http://www.w3.org/1999/xlink" x="0px" y="0px"
	 width="64px" height="64px" viewBox="0 0 64 64" enable-background="new 0 0 64 64" xml:space="preserve">
<path d="M28.209,29.367H9.143C8.511,29.367,8,28.855,8,28.224V9.158c0-0.631,0.511-1.144,1.143-1.144h4.567
	c0.631,0,1.142,0.513,1.142,1.144v7.434c4.356-4.838,10.686-7.865,17.718-7.812c13.031,0.094,23.457,10.623,23.429,23.652
	c-0.028,13.014-10.585,23.554-23.604,23.554c-6.1,0-11.658-2.314-15.848-6.112c-0.484-0.439-0.508-1.194-0.044-1.657l3.233-3.232
	c0.426-0.427,1.109-0.448,1.561-0.05c2.954,2.613,6.84,4.199,11.098,4.199c9.257,0,16.751-7.492,16.751-16.751
	c0-9.258-7.492-16.751-16.751-16.751c-5.566,0-10.496,2.71-13.541,6.886h9.354c0.63,0,1.142,0.511,1.142,1.142v4.568
	C29.352,28.855,28.839,29.367,28.209,29.367L28.209,29.367z"/>
</svg>
