<?xml version="1.0" encoding="utf-8"?>
<!-- Generator: Adobe Illustrator 15.0.0, SVG Export Plug-In . SVG Version: 6.00 Build 0)  -->
<!DOCTYPE svg PUBLIC "-//W3C//DTD SVG 1.1//EN" "http://www.w3.org/Graphics/SVG/1.1/DTD/svg11.dtd">
<svg version="1.1" id="Layer_1" xmlns="http://www.w3.org/2000/svg" xmlns:xlink="http://www.w3.org/1999/xlink" x="0px" y="0px"
	 width="64px" height="64px" viewBox="0 0 64 64" enable-background="new 0 0 64 64" xml:space="preserve">
<path d="M52.01,35.776l3.939-17.333C56.233,17.192,55.282,16,53.999,16H21.268l-0.764-3.734c-0.189-0.931-1.009-1.599-1.959-1.599
	H10c-1.104,0-2,0.896-2,2V14c0,1.104,0.896,2,2,2h5.824l5.854,28.619c-1.4,0.806-2.344,2.315-2.344,4.048
	c0,2.577,2.089,4.666,4.667,4.666s4.667-2.089,4.667-4.666c0-1.307-0.537-2.486-1.402-3.334h17.472
	c-0.864,0.848-1.402,2.027-1.402,3.334c0,2.577,2.09,4.666,4.667,4.666s4.667-2.089,4.667-4.666c0-1.848-1.074-3.444-2.632-4.201
	l0.46-2.021c0.284-1.252-0.667-2.443-1.95-2.443H26.178l-0.545-2.667h24.43C50.993,37.333,51.803,36.688,52.01,35.776z"/>
</svg>
