<?xml version="1.0" encoding="utf-8"?>
<!-- Generator: Adobe Illustrator 15.0.0, SVG Export Plug-In . SVG Version: 6.00 Build 0)  -->
<!DOCTYPE svg PUBLIC "-//W3C//DTD SVG 1.1//EN" "http://www.w3.org/Graphics/SVG/1.1/DTD/svg11.dtd">
<svg version="1.1" id="Layer_1" focusable="false" xmlns="http://www.w3.org/2000/svg" xmlns:xlink="http://www.w3.org/1999/xlink"
	 x="0px" y="0px" width="64px" height="64px" viewBox="168 168 64 64" enable-background="new 168 168 64 64" xml:space="preserve">
<path d="M223.71,198.784C219.19,189.966,210.244,184,200,184c-10.244,0-19.193,5.97-23.71,14.784c-0.387,0.765-0.387,1.668,0,2.433
	C180.809,210.034,189.755,216,200,216c10.245,0,19.194-5.97,23.71-14.784C224.097,200.451,224.097,199.548,223.71,198.784z M200,212
	c-6.627,0-12-5.372-12-12c0-6.627,5.373-12,12-12s12,5.373,12,12c0.003,6.624-5.364,11.997-11.989,12
	C200.007,212,200.003,212,200,212z M200,192c-0.714,0.01-1.423,0.116-2.109,0.316c1.305,1.774,0.925,4.27-0.849,5.575
	c-1.405,1.034-3.321,1.034-4.727,0c-1.155,4.254,1.358,8.639,5.612,9.793c4.254,1.155,8.639-1.357,9.794-5.612
	c1.154-4.254-1.358-8.639-5.612-9.793C201.422,192.092,200.712,191.999,200,192z"/>
</svg>
