<?xml version="1.0" encoding="utf-8"?>
<!-- Generator: Adobe Illustrator 15.0.0, SVG Export Plug-In . SVG Version: 6.00 Build 0)  -->
<!DOCTYPE svg PUBLIC "-//W3C//DTD SVG 1.1//EN" "http://www.w3.org/Graphics/SVG/1.1/DTD/svg11.dtd">
<svg version="1.1" id="Layer_1" xmlns="http://www.w3.org/2000/svg" xmlns:xlink="http://www.w3.org/1999/xlink" x="0px" y="0px"
	 width="64px" height="64px" viewBox="0 0 64 64" enable-background="new 0 0 64 64" xml:space="preserve">
<path d="M50.27,35.396l4.125,2.381c0.471,0.271,0.689,0.834,0.527,1.354c-1.07,3.449-2.9,6.564-5.292,9.153
	c-0.369,0.399-0.965,0.489-1.435,0.218l-4.122-2.38c-1.733,1.485-3.728,2.638-5.88,3.399v4.76c0,0.544-0.377,1.015-0.907,1.134
	c-3.384,0.76-7.016,0.799-10.569,0.001c-0.531-0.119-0.91-0.59-0.91-1.135v-4.76c-2.152-0.762-4.146-1.914-5.88-3.399l-4.121,2.38
	c-0.471,0.271-1.067,0.182-1.436-0.218c-2.392-2.589-4.221-5.704-5.292-9.153c-0.161-0.52,0.058-1.082,0.528-1.354l4.125-2.381
	c-0.414-2.246-0.414-4.547,0-6.792l-4.125-2.381c-0.471-0.272-0.689-0.834-0.528-1.353c1.072-3.45,2.9-6.565,5.292-9.154
	c0.369-0.399,0.965-0.49,1.436-0.218l4.121,2.38c1.734-1.485,3.728-2.638,5.88-3.4V9.719c0-0.544,0.377-1.015,0.908-1.134
	c3.382-0.76,7.016-0.799,10.569-0.001c0.53,0.119,0.909,0.59,0.909,1.135v4.759c2.152,0.762,4.146,1.914,5.881,3.4l4.121-2.38
	c0.47-0.271,1.065-0.181,1.435,0.218c2.392,2.588,4.222,5.704,5.292,9.153c0.162,0.519-0.057,1.082-0.527,1.354l-4.125,2.38
	C50.684,30.849,50.684,33.15,50.27,35.396L50.27,35.396z M39.742,32c0-4.269-3.473-7.742-7.742-7.742
	c-4.269,0-7.742,3.473-7.742,7.742c0,4.27,3.473,7.742,7.742,7.742C36.27,39.742,39.742,36.27,39.742,32z"/>
</svg>
