<?xml version="1.0" encoding="utf-8"?>
<!-- Generator: Adobe Illustrator 15.0.0, SVG Export Plug-In . SVG Version: 6.00 Build 0)  -->
<!DOCTYPE svg PUBLIC "-//W3C//DTD SVG 1.1//EN" "http://www.w3.org/Graphics/SVG/1.1/DTD/svg11.dtd">
<svg version="1.1" id="Layer_1" xmlns="http://www.w3.org/2000/svg" xmlns:xlink="http://www.w3.org/1999/xlink" x="0px" y="0px"
	 width="64px" height="64px" viewBox="-4.5 101.5 64 64" enable-background="new -4.5 101.5 64 64" xml:space="preserve">
<path d="M17.9,147.9c-2.64,0-4.777,2.16-4.777,4.8c0,2.639,2.138,4.8,4.777,4.8c2.639,0,4.8-2.161,4.8-4.8
	C22.7,150.061,20.539,147.9,17.9,147.9z M3.5,109.5v4.8h4.8l8.64,18.216l-3.239,5.881c-0.385,0.672-0.601,1.465-0.601,2.304
	c0,2.639,2.161,4.8,4.801,4.8h28.8v-4.8H18.908c-0.338,0-0.601-0.263-0.601-0.601l0.073-0.288l2.158-3.911H38.42
	c1.8,0,3.384-0.984,4.199-2.471l8.593-15.576c0.192-0.338,0.288-0.746,0.288-1.153c0-1.319-1.08-2.4-2.4-2.4H13.604l-2.257-4.8H3.5z
	 M41.9,147.9c-2.64,0-4.777,2.16-4.777,4.8c0,2.639,2.138,4.8,4.777,4.8c2.639,0,4.8-2.161,4.8-4.8
	C46.7,150.061,44.539,147.9,41.9,147.9z"/>
</svg>
