<?xml version="1.0" encoding="utf-8"?>
<!-- Generator: Adobe Illustrator 15.0.0, SVG Export Plug-In . SVG Version: 6.00 Build 0)  -->
<!DOCTYPE svg PUBLIC "-//W3C//DTD SVG 1.1//EN" "http://www.w3.org/Graphics/SVG/1.1/DTD/svg11.dtd">
<svg version="1.1" id="Layer_1" xmlns="http://www.w3.org/2000/svg" xmlns:xlink="http://www.w3.org/1999/xlink" x="0px" y="0px"
	 width="64px" height="64px" viewBox="0 0 64 64" enable-background="new 0 0 64 64" xml:space="preserve">
<path d="M55.336,33.618L39.335,49.619C37.906,51.048,35.43,50.048,35.43,48v-9.145H22.477c-1.267,0-2.286-1.019-2.286-2.285v-9.144
	c0-1.267,1.019-2.286,2.286-2.286H35.43v-9.144c0-2.038,2.467-3.047,3.905-1.619L55.336,30.38
	C56.223,31.275,56.223,32.723,55.336,33.618z M26.287,49.143v-3.81c0-0.629-0.515-1.144-1.143-1.144h-8
	c-1.686,0-3.048-1.361-3.048-3.047V22.856c0-1.686,1.362-3.048,3.048-3.048h8c0.628,0,1.143-0.515,1.143-1.143v-3.81
	c0-0.629-0.515-1.143-1.143-1.143h-8C12.095,13.712,8,17.808,8,22.856v18.287c0,5.049,4.095,9.145,9.143,9.145h8
	C25.772,50.286,26.287,49.771,26.287,49.143z"/>
</svg>
